<svg width="214" height="40" viewBox="0 0 214 40" fill="none" xmlns="http://www.w3.org/2000/svg">
<g clip-path="url(#clip0_182_25)">
<path fill-rule="evenodd" clip-rule="evenodd" d="M142.102 1.42462C144.171 1.42462 146.24 1.42462 148.309 1.42462C148.294 8.19586 148.29 14.9676 148.296 21.7393C148.303 22.2928 148.397 22.8312 148.579 23.3545C148.628 23.4985 148.701 23.6285 148.797 23.7454C146.719 23.7624 144.641 23.7624 142.564 23.7454C142.35 23.3816 142.217 22.9907 142.166 22.5723C142.126 22.2787 142.1 21.9847 142.089 21.6887C142.081 14.934 142.085 8.1793 142.102 1.42462Z" fill="#005A6B" fill-opacity="0.996078"/>
<path fill-rule="evenodd" clip-rule="evenodd" d="M167.982 1.42462C170.051 1.42462 172.12 1.42462 174.189 1.42462C174.187 3.99012 174.183 6.55611 174.176 9.12161C175.396 7.73525 176.943 7.02877 178.819 7.00218C181.331 7.11507 183.323 8.16626 184.795 10.1567C186.157 12.1302 186.713 14.3088 186.462 16.6927C186.213 18.9772 185.243 20.8989 183.551 22.4589C181.691 24.0474 179.554 24.5858 177.139 24.074C175.946 23.7338 174.95 23.0986 174.151 22.1689C174.135 22.6992 174.139 23.2291 174.163 23.7584C172.086 23.7584 170.008 23.7584 167.931 23.7584C167.955 16.3138 167.972 8.86972 167.982 1.42512L167.982 1.42462ZM177.087 12.0995C178.303 12.1276 179.213 12.6575 179.819 13.6891C180.493 15.0057 180.485 16.3178 179.793 17.6259C179.214 18.5813 178.359 19.1031 177.228 19.1909C176.118 19.1162 175.281 18.6114 174.714 17.6766C174.008 16.3856 173.982 15.0815 174.637 13.7654C175.172 12.8065 175.989 12.2511 177.087 12.1001L177.087 12.0995Z" fill="#005A6B" fill-opacity="0.996078"/>
<path fill-rule="evenodd" clip-rule="evenodd" d="M213.714 23.7328C213.714 23.7414 213.714 23.7499 213.714 23.7579C211.645 23.7624 209.576 23.7579 207.507 23.7454C207.274 23.361 207.133 22.9446 207.084 22.4965C207.063 22.3204 207.045 22.1438 207.032 21.9666C207.02 15.1196 207.015 8.27212 207.02 1.42511C209.089 1.42511 211.158 1.42511 213.227 1.42511C213.235 7.86017 213.226 14.2952 213.201 20.7303C213.199 21.3725 213.237 22.0118 213.316 22.6485C213.371 23.0414 213.504 23.4032 213.714 23.7333V23.7328Z" fill="#005A6B" fill-opacity="0.996078"/>
<path fill-rule="evenodd" clip-rule="evenodd" d="M129.714 1.92938C134.089 1.97554 137.402 3.82603 139.653 7.48135C139.765 7.66951 139.864 7.86269 139.948 8.06188C138.005 8.56966 136.065 9.08296 134.125 9.60128C132.696 7.89731 130.874 7.26208 128.662 7.6961C126.73 8.2671 125.435 9.49089 124.776 11.368C124.208 13.3058 124.533 15.0805 125.751 16.6926C127.107 18.2762 128.83 18.9029 130.919 18.5727C132.61 18.1914 133.824 17.2285 134.561 15.6836C132.569 15.6585 130.577 15.65 128.585 15.6585C128.591 14.1277 128.599 12.5968 128.611 11.0659C132.68 11.0659 136.75 11.0659 140.82 11.0659C141.308 14.0178 140.765 16.7684 139.191 19.3178C137.178 22.3033 134.344 23.9481 130.688 24.2511C126.838 24.4333 123.619 23.1337 121.031 20.3525C118.755 17.6856 117.899 14.6234 118.466 11.1668C119.175 7.82154 121.009 5.26809 123.968 3.50792C125.75 2.50691 127.665 1.98106 129.714 1.93089V1.92938Z" fill="#005A6B" fill-opacity="0.992157"/>
<path fill-rule="evenodd" clip-rule="evenodd" d="M58.4091 2.45923C60.4781 2.45923 62.5471 2.45923 64.6161 2.45923C64.5973 9.55862 64.5886 16.6585 64.5901 23.7579C62.5125 23.7579 60.4348 23.7579 58.3576 23.7579C58.378 16.6585 58.3953 9.55862 58.4091 2.45923Z" fill="#005A6B" fill-opacity="0.996078"/>
<path fill-rule="evenodd" clip-rule="evenodd" d="M73.9269 2.45923C75.9959 2.45923 78.0649 2.45923 80.1339 2.45923C80.1314 7.05183 80.1186 11.6449 80.0957 16.2375C80.0559 17.7393 79.68 19.1523 78.9671 20.4769C77.9053 22.2009 76.3794 23.3239 74.3889 23.8457C72.7488 24.2858 71.0904 24.3781 69.413 24.1237C68.1783 23.8944 67.0671 23.4067 66.0787 22.6601C65.9166 22.5336 65.7712 22.3906 65.6427 22.2311C66.5321 20.641 67.421 19.0514 68.3104 17.4618C68.3273 17.4448 68.3446 17.4448 68.3614 17.4618C69.1065 18.3936 70.0811 18.7885 71.2852 18.648C72.8743 18.4142 73.7418 17.5095 73.8886 15.9355C73.9055 11.4437 73.9187 6.95148 73.9274 2.45973L73.9269 2.45923Z" fill="#005A6B" fill-opacity="0.996078"/>
<path fill-rule="evenodd" clip-rule="evenodd" d="M82.7241 2.45926C84.8018 2.45073 86.8795 2.45926 88.9567 2.48435C90.66 6.68407 92.3659 10.8813 94.0739 15.077C95.7879 10.8798 97.5025 6.68207 99.2165 2.48435C101.294 2.45926 103.372 2.45073 105.449 2.45926C106.124 9.55865 106.8 16.6585 107.475 23.7579C105.4 23.7665 103.327 23.7579 101.255 23.7328C100.922 20.0484 100.589 16.364 100.255 12.6796C99.0513 16.3635 97.8503 20.0474 96.6518 23.7328C94.9189 23.7665 93.1875 23.7665 91.4581 23.7328C90.2816 20.0625 89.0974 16.3946 87.9056 12.7303C87.5471 16.4057 87.1967 20.0815 86.854 23.7579C84.785 23.7579 82.716 23.7579 80.647 23.7579C81.3462 16.659 82.0387 9.55966 82.7247 2.45926H82.7241Z" fill="#005A6B" fill-opacity="0.996078"/>
<path fill-rule="evenodd" clip-rule="evenodd" d="M157.851 7.00166C160.069 6.93743 162.087 7.52198 163.904 8.7553C166.194 10.4819 167.357 12.7744 167.392 15.6319C167.354 18.5035 166.183 20.8041 163.878 22.5336C162.142 23.7087 160.214 24.2933 158.094 24.2873C156.522 24.2943 155.022 23.9792 153.593 23.3409C151.138 22.1282 149.612 20.1974 149.015 17.5496C148.583 15.3966 148.874 13.3439 149.887 11.392C151.073 9.3544 152.821 8.02123 155.132 7.39253C156.027 7.15921 156.933 7.02875 157.851 7.00166ZM157.953 12.099C159.148 12.1196 160.05 12.6324 160.659 13.6384C161.239 14.7057 161.342 15.8161 160.967 16.9696C160.643 17.8938 160.032 18.5622 159.133 18.9756C157.852 19.4001 156.77 19.1096 155.888 18.1051C155.001 16.9144 154.804 15.6194 155.299 14.219C155.66 13.2656 156.323 12.6053 157.286 12.238C157.509 12.1768 157.732 12.1301 157.954 12.0995L157.953 12.099Z" fill="#005A6B" fill-opacity="0.996078"/>
<path fill-rule="evenodd" clip-rule="evenodd" d="M194.118 7.00166C196.071 6.96101 197.674 7.66799 198.927 9.12109C198.966 8.58671 198.978 8.04833 198.966 7.50593C201.047 7.49338 203.124 7.50593 205.198 7.54356C205.174 12.1643 205.161 16.7865 205.16 21.4102C205.149 22.065 205.243 22.7042 205.442 23.3279C205.497 23.4759 205.57 23.6144 205.66 23.7444C203.582 23.7654 201.504 23.7614 199.427 23.7318C199.303 23.5637 199.213 23.3786 199.158 23.1769C199.07 22.8527 199.002 22.5246 198.953 22.1924C197.553 23.7429 195.796 24.4283 193.682 24.2491C191.775 24.0364 190.18 23.2331 188.898 21.8392C187.214 19.8878 186.445 17.6254 186.59 15.0509C186.754 12.6444 187.708 10.6048 189.45 8.93142C190.772 7.74526 192.328 7.10151 194.118 7.00116V7.00166ZM195.708 12.099C196.868 12.1121 197.753 12.5998 198.363 13.5627C199.008 14.6931 199.11 15.8708 198.671 17.0955C198.253 18.1548 197.487 18.8321 196.375 19.1272C195.071 19.2827 194.067 18.8156 193.362 17.7268C192.709 16.5968 192.607 15.4192 193.054 14.1939C193.44 13.2255 194.128 12.5652 195.118 12.2129C195.317 12.1638 195.513 12.1256 195.708 12.0995V12.099Z" fill="#005A6B" fill-opacity="0.996078"/>
<path fill-rule="evenodd" clip-rule="evenodd" d="M58.024 29.9657C58.5284 29.9657 59.0328 29.9657 59.5372 29.9657C59.5372 32.3967 59.5372 34.8277 59.5372 37.2588C61.0161 37.2588 62.4951 37.2588 63.9745 37.2588C63.9745 37.6963 63.9745 38.1338 63.9745 38.5714C61.9912 38.5714 60.0074 38.5714 58.024 38.5714C58.024 35.7028 58.024 32.8348 58.024 29.9662V29.9657Z" fill="#005A6B" fill-opacity="0.984314"/>
<path fill-rule="evenodd" clip-rule="evenodd" d="M82.8011 29.9657C83.306 29.9657 83.8099 29.9657 84.3148 29.9657C84.3148 32.8343 84.3148 35.7023 84.3148 38.5709C83.8099 38.5709 83.306 38.5709 82.8011 38.5709C82.8011 35.7023 82.8011 32.8343 82.8011 29.9657Z" fill="#005A6B" fill-opacity="0.984314"/>
<path fill-rule="evenodd" clip-rule="evenodd" d="M103.885 29.9657C104.39 29.9571 104.894 29.9657 105.398 29.9908C106.47 32.2858 107.556 34.5738 108.655 36.8548C109.741 34.5678 110.827 32.2798 111.913 29.9908C112.417 29.9657 112.921 29.9571 113.426 29.9657C113.426 32.8342 113.426 35.7023 113.426 38.5708C112.921 38.5708 112.418 38.5708 111.913 38.5708C111.917 36.7705 111.913 34.9707 111.9 33.1704C111.084 34.9642 110.263 36.756 109.438 38.5458C108.914 38.5708 108.388 38.5794 107.86 38.5713C107.051 36.769 106.235 34.9687 105.411 33.1709C105.398 34.9712 105.394 36.771 105.398 38.5713C104.894 38.5713 104.389 38.5713 103.885 38.5713C103.885 35.7028 103.885 32.8347 103.885 29.9662V29.9657Z" fill="#005A6B" fill-opacity="0.984314"/>
<path fill-rule="evenodd" clip-rule="evenodd" d="M132.996 29.9657C133.501 29.9657 134.005 29.9657 134.51 29.9657C134.51 32.8343 134.51 35.7023 134.51 38.5709C134.005 38.5709 133.501 38.5709 132.996 38.5709C132.996 35.7023 132.996 32.8343 132.996 29.9657Z" fill="#005A6B" fill-opacity="0.984314"/>
<path fill-rule="evenodd" clip-rule="evenodd" d="M153.336 29.9657C155.901 29.9657 158.466 29.9657 161.031 29.9657C161.031 30.4032 161.031 30.8408 161.031 31.2778C159.997 31.2778 158.962 31.2778 157.928 31.2778C157.928 33.7088 157.928 36.1398 157.928 38.5709C157.423 38.5709 156.919 38.5709 156.414 38.5709C156.414 36.1398 156.414 33.7088 156.414 31.2778C155.388 31.2778 154.362 31.2778 153.336 31.2778C153.336 30.8408 153.336 30.4032 153.336 29.9657Z" fill="#005A6B" fill-opacity="0.984314"/>
<path fill-rule="evenodd" clip-rule="evenodd" d="M179.857 29.9657C181.961 29.9657 184.064 29.9657 186.167 29.9657C186.167 30.4032 186.167 30.8408 186.167 31.2778C184.568 31.2778 182.969 31.2778 181.371 31.2778C181.371 32.0013 181.371 32.7249 181.371 33.4479C182.738 33.4479 184.107 33.4479 185.474 33.4479C185.474 33.8854 185.474 34.323 185.474 34.7605C184.107 34.7605 182.738 34.7605 181.371 34.7605C181.371 35.5929 181.371 36.4258 181.371 37.2588C183.038 37.2588 184.705 37.2588 186.372 37.2588C186.372 37.6963 186.372 38.1338 186.372 38.5714C184.2 38.5714 182.029 38.5714 179.857 38.5714C179.857 35.7028 179.857 32.8348 179.857 29.9662L179.857 29.9657Z" fill="#005A6B" fill-opacity="0.984314"/>
<path fill-rule="evenodd" clip-rule="evenodd" d="M205.507 29.9657C206.789 29.9617 208.071 29.9657 209.354 29.9782C211.053 30.1945 212.22 31.0821 212.855 32.6405C213.296 33.9677 213.201 35.2547 212.573 36.5016C211.881 37.6521 210.859 38.3295 209.508 38.5327C208.175 38.5693 206.841 38.5819 205.507 38.5708C205.507 35.7023 205.507 32.8342 205.507 29.9657ZM207.02 31.2778C207.738 31.2738 208.456 31.2778 209.174 31.2903C210.26 31.4338 211 32.0098 211.393 33.0189C211.733 34.0033 211.673 34.9622 211.213 35.896C210.79 36.6315 210.153 37.0731 209.302 37.2206C208.542 37.2562 207.781 37.2688 207.02 37.2582C207.02 35.2647 207.02 33.2713 207.02 31.2773V31.2778Z" fill="#005A6B" fill-opacity="0.984314"/>
<path fill-rule="evenodd" clip-rule="evenodd" d="M0.249399 0.000135548C1.23316 0.000135548 2.21743 0.000135548 3.20119 0.000135548C11.8006 0.0282341 20.4025 0.0628555 29.0064 0.103498C29.0064 7.95101 29.0064 15.799 29.0064 23.6465C27.9344 24.1403 26.8497 24.6094 25.7527 25.0535C25.7507 17.8337 25.7532 10.6144 25.7594 3.39454C25.7548 3.3554 25.7395 3.32078 25.7135 3.29117C18.2932 3.26308 10.8719 3.242 3.45057 3.22695C3.39448 5.87724 3.34399 8.52753 3.29962 11.1778C3.28942 11.1954 3.27412 11.2059 3.25372 11.2099C2.52342 11.2104 1.79261 11.1954 1.06282 11.1648C0.747654 11.1838 0.432993 11.1818 0.118333 11.1583C0.0933433 11.1532 0.071414 11.1427 0.0530545 11.1256C0.0571344 10.8381 0.0530545 10.5496 0.0397949 10.2611C0.0933433 8.42417 0.130572 6.58723 0.151482 4.74979C0.186161 3.16674 0.2188 1.58319 0.249909 -0.000366211L0.249399 0.000135548Z" fill="#005A6B" fill-opacity="0.996078"/>
<path fill-rule="evenodd" clip-rule="evenodd" d="M13.867 9.02227C14.8875 8.92242 15.832 9.13517 16.701 9.66101C17.8893 10.4658 18.4339 11.5822 18.3345 13.0103C18.2611 14.0996 17.7949 14.9837 16.9371 15.6631C16.7204 15.8286 16.4929 15.9792 16.2548 16.1146C16.1798 16.1478 16.1033 16.1759 16.0253 16.1984C16.0253 19.1076 16.0166 22.0158 15.9993 24.924C15.9875 24.9396 15.9722 24.9501 15.9534 24.9561C14.8819 24.9627 13.8104 24.9647 12.7389 24.9627C12.741 22.067 12.7389 19.1714 12.7323 16.2762C12.7032 16.2476 12.6701 16.224 12.6339 16.2055C11.695 15.8151 11.0152 15.1633 10.5939 14.2496C10.3527 13.648 10.2609 13.0238 10.3185 12.378C10.419 11.2009 10.9678 10.2907 11.9648 9.64796C12.5508 9.29573 13.1852 9.087 13.867 9.02177V9.02227Z" fill="#29D6FF" fill-opacity="0.996078"/>
<path fill-rule="evenodd" clip-rule="evenodd" d="M29.0064 29.9195C28.9916 30.8207 28.9784 31.7244 28.9671 32.63C28.7239 32.756 28.4832 32.8854 28.2455 33.0174C27.6305 33.3481 27.0052 33.6622 26.3693 33.9597C26.1638 34.0535 25.9603 34.1524 25.7593 34.2568C25.7527 33.0651 25.7507 31.8729 25.7527 30.6812C25.7527 29.9281 25.7527 29.1754 25.7527 28.4223C25.591 28.4825 25.4335 28.5538 25.2805 28.6355C21.6958 30.1599 18.1101 31.6807 14.5228 33.198C14.3984 33.1594 14.276 33.1142 14.1557 33.0626C13.587 32.8132 13.0184 32.5633 12.4503 32.3139C9.40667 31.0199 6.36308 29.7269 3.31949 28.4353C3.31949 28.4313 3.31949 28.4268 3.31949 28.4223C3.31847 28.4153 3.31439 28.4113 3.30623 28.4098C3.29297 28.8142 3.28889 29.2186 3.29297 29.623C3.28889 29.9607 3.29297 30.2964 3.30623 30.63C3.30623 30.6943 3.30623 30.759 3.30623 30.8237C3.29552 30.9592 3.28889 31.0967 3.28634 31.2367C3.27971 32.2994 3.27767 33.3621 3.27971 34.4248C3.27869 34.4319 3.27461 34.4364 3.26645 34.4379C2.77942 34.1735 2.28983 33.9156 1.79719 33.6632C1.79107 33.6451 1.77781 33.6366 1.75792 33.6376C1.30862 33.4379 0.871564 33.2186 0.446237 32.9793C0.440117 32.9612 0.426857 32.9527 0.406968 32.9537C0.34169 32.9301 0.280492 32.9 0.223373 32.8634C0.160135 32.8217 0.0948572 32.7831 0.0265192 32.747C0.0178495 32.5949 0.00917973 32.4444 0 32.2954C0 32.0415 0 31.7876 0 31.5337C0.0356989 28.92 0.0576283 26.3039 0.0657881 23.6857C0.133616 23.6887 0.199404 23.7038 0.262642 23.7308C0.34118 23.7695 0.420228 23.8081 0.498765 23.8473C5.16462 25.8372 9.83098 27.8272 14.4968 29.8172C14.632 29.7836 14.763 29.7384 14.8905 29.6817C15.7621 29.2893 16.6408 28.915 17.5277 28.5588C20.2668 27.3842 23.009 26.2161 25.7532 25.0545C26.8502 24.6104 27.9344 24.1413 29.0069 23.6476C29.038 23.6455 29.0686 23.641 29.0987 23.635C29.0875 25.7309 29.0569 27.8257 29.0069 29.9205L29.0064 29.9195Z" fill="#28D5FE" fill-opacity="0.996078"/>
<path fill-rule="evenodd" clip-rule="evenodd" d="M3.31948 28.4223C3.31081 28.8227 3.30163 29.2226 3.29296 29.6225C3.28888 29.2181 3.29296 28.8137 3.30622 28.4092C3.31438 28.4107 3.31846 28.4153 3.31948 28.4218V28.4223Z" fill="#169EBC"/>
<path fill-rule="evenodd" clip-rule="evenodd" d="M3.31948 28.4223C3.31948 28.4268 3.31948 28.4308 3.31948 28.4353C3.3205 29.1669 3.31642 29.8985 3.30622 30.6295C3.29296 30.2959 3.28888 29.9607 3.29296 29.6225C3.30163 29.2226 3.3103 28.8222 3.31948 28.4223Z" fill="#08788F" fill-opacity="0.807843"/>
<path fill-rule="evenodd" clip-rule="evenodd" d="M25.7527 30.6812C25.7507 31.8729 25.7527 33.0646 25.7593 34.2568C25.9603 34.1524 26.1638 34.0535 26.3693 33.9597C22.3899 35.9733 18.41 37.9868 14.4311 40.0004C14.3959 40.0004 14.3612 40.0004 14.326 40.0004C10.6449 38.1419 6.96283 36.2834 3.27972 34.4243C3.27717 33.3616 3.27972 32.2989 3.28635 31.2362C3.2889 31.0962 3.29502 30.9587 3.30624 30.8232C6.99037 32.6883 10.6745 34.5513 14.3591 36.4123C15.5943 35.8167 16.8162 35.1991 18.0259 34.5603C19.0632 34.037 20.1036 33.5207 21.1481 33.0114C21.3536 32.906 21.5545 32.7941 21.7514 32.6757C23.0299 32.0445 24.3023 31.4032 25.5691 30.7525C25.6262 30.7178 25.6874 30.6943 25.7527 30.6817V30.6812Z" fill="#005A6B" fill-opacity="0.996078"/>
<path fill-rule="evenodd" clip-rule="evenodd" d="M0 32.2944C0.00917973 32.4439 0.0178495 32.5944 0.0265192 32.746C0.0178495 32.746 0.00866974 32.746 0 32.746C0 32.5954 0 32.4449 0 32.2944Z" fill="#16A0BF" fill-opacity="0.317647"/>
<path fill-rule="evenodd" clip-rule="evenodd" d="M29.0064 29.9196C29.0089 30.8192 29.0064 31.7179 28.9998 32.617C28.9936 32.6356 28.9829 32.6506 28.9671 32.6622C28.7259 32.7806 28.4857 32.8995 28.2455 33.0174C28.4831 32.8855 28.7233 32.7565 28.9671 32.6301C28.9783 31.7244 28.9916 30.8207 29.0064 29.9196Z" fill="#03677B" fill-opacity="0.560784"/>
<path fill-rule="evenodd" clip-rule="evenodd" d="M0 32.759C0 32.7545 0 32.7505 0 32.746C0.00866974 32.746 0.0178495 32.746 0.0265192 32.746C0.0948572 32.7816 0.160135 32.8202 0.223373 32.8624C0.147386 32.8313 0.0729278 32.7972 0 32.759Z" fill="#016274" fill-opacity="0.25098"/>
<path fill-rule="evenodd" clip-rule="evenodd" d="M0.406982 32.9527C0.426872 32.9517 0.440131 32.9602 0.446251 32.9783C0.426362 32.9793 0.413102 32.9708 0.406982 32.9527Z" fill="#0F8CA8" fill-opacity="0.47451"/>
<path fill-rule="evenodd" clip-rule="evenodd" d="M1.75793 33.6371C1.77833 33.6361 1.79108 33.6446 1.7972 33.6627C1.77731 33.6637 1.76405 33.6552 1.75793 33.6371Z" fill="#067187" fill-opacity="0.341176"/>
</g>
<defs>
<clipPath id="clip0_182_25">
<rect width="213.714" height="40" fill="white"/>
</clipPath>
</defs>
</svg>
